Motion_kv10_l
version=1
nRows=12
nColumns=43
inDegrees=yes
endheader
time	pelvis_tilt	pelvis_list	pelvis_rotation	pelvis_tx	pelvis_ty	pelvis_tz	hip_flexion_r	hip_adduction_r	hip_rotation_r	knee_angle_r	ankle_angle_r	subtalar_angle_r	mtp_angle_r	hip_flexion_l	hip_adduction_l	hip_rotation_l	knee_angle_l	ankle_angle_l	subtalar_angle_l	mtp_angle_l	lumbar_extension	lumbar_bending	lumbar_rotation	neck_flexion	neck_lateral_bending	neck_rotation	arm_flex_r	arm_add_r	arm_rot_r	elbow_flex_r	pro_sup_r	wrist_flex_r	wrist_dev_r	hand_finger_flex_r	arm_flex_l	arm_add_l	arm_rot_l	elbow_flex_l	pro_sup_l	wrist_flex_l	wrist_dev_l	hand_finger_flex_l
      2.17000000	      0.57783800	    -19.31141368	     90.42975406	     -0.00218867	      0.64999577	      0.37551178	     84.52434839	     -2.78777674	     -0.01502417	   -103.70858015	     23.11764020	      2.72842403	     12.69820311	     85.48250232	     -7.11402794	      4.22404646	   -102.31002729	     16.22523041	     21.15142851	     32.01097221	    -48.47172240	     -1.01930050	      0.08893199	     37.00748547	      1.44339384	     -4.24831756	     59.21769508	    -25.92692625	     -6.89177060	     72.27517436	    116.39447815	     15.21374349	    -12.61117969	     -5.50016868	     49.54038666	    -23.03739058	    -10.83542966	     70.23616579	    118.73006215	    -30.10909699	    -13.67733911	    -10.69420647
      2.17250000	      0.56579692	    -19.32727084	     90.41419839	     -0.00204815	      0.65010454	      0.37526327	     84.54228327	     -2.82341180	     -0.05793853	   -103.72995129	     23.12313624	      2.72918027	     12.71650123	     85.45991220	     -7.13613215	      4.21997493	   -102.29750041	     16.23499999	     21.15751137	     32.01924546	    -48.34186945	     -1.03952294	      0.09608281	     36.96190653	      1.46225743	     -4.24641506	     59.62046340	    -25.86155068	     -6.87226847	     72.45818280	    116.35597746	     15.18528211	    -12.63636107	     -5.51168468	     49.80943570	    -22.99930952	    -10.77800477	     70.38350987	    118.74428857	    -30.10419201	    -13.68847659	    -10.67410132
      2.17500000	      0.55448039	    -19.37284117	     90.39458259	     -0.00187924	      0.65048629	      0.37522556	     84.54945196	     -2.82871788	     -0.08241510	   -103.63634338	     23.05630114	      2.74759860	     12.78233839	     85.43202671	     -7.16991583	      4.20704773	   -102.17918155	     16.24387401	     21.19192958	     32.04961853	    -48.19851617	     -1.06612443	      0.08282267	     37.02107954	      1.52613868	     -4.24875908	     60.21316882	    -25.86518759	     -6.57071927	     72.43152537	    116.33041515	     15.19271116	    -12.52757033	     -5.51543794	     50.19725441	    -23.02581024	    -10.60593277	     70.40316609	    118.76467397	    -30.03596061	    -13.58236859	    -10.56748394
      2.17750000	      0.54111225	    -19.36766563	     90.39504746	     -0.00169041	      0.65045992	      0.37495042	     84.55499450	     -2.83438335	     -0.09328000	   -103.69852145	     23.05395397	      2.74655391	     12.79946366	     85.41955069	     -7.19121959	      4.20941346	   -102.22882721	     16.24955457	     21.20147630	     32.05778200	    -48.07932804	     -1.07055920	      0.07943360	     36.97291236	      1.54808005	     -4.24936166	     60.60663896	    -25.81827155	     -6.51734587	     72.61227216	    116.30326915	     15.17879165	    -12.54955800	     -5.52236303	     50.46746001	    -23.01249574	    -10.54715165	     70.53467529	    118.77628761	    -30.02615230	    -13.59021769	    -10.54636574
      2.18000000	      0.54972215	    -19.30108986	     90.35942343	     -0.00159278	      0.65077689	      0.37478565	     84.46916103	     -2.79439769	     -0.08638288	   -103.68279264	     22.94167300	      2.73251874	     12.93998200	     85.32668253	     -7.25045039	      4.21085810	   -102.21452301	     16.21865787	     21.28552975	     32.11525802	    -48.01955368	     -1.08496929	      0.04456905	     36.94979063	      1.58636038	     -4.21718584	     61.30691648	    -25.94727901	     -5.91093941	     72.51245982	    116.24686522	     15.22073704	    -12.34790348	     -5.53362010	     50.81709765	    -23.15547271	    -10.28608140	     70.53754978	    118.76319059	    -29.97934223	    -13.37602949	    -10.35006760
      2.18250000	      0.55076048	    -19.31409571	     90.37563509	     -0.00140066	      0.65087761	      0.37453227	     84.45200205	     -2.77845913	     -0.08501533	   -103.67845451	     22.95224996	      2.72738398	     12.95882993	     85.31178545	     -7.26434919	      4.21493124	   -102.20587288	     16.22891089	     21.29305178	     32.12306850	    -47.89389579	     -1.08497254	      0.03617291	     36.89680141	      1.60404221	     -4.21198469	     61.68043153	    -25.87667330	     -5.87415161	     72.69738957	    116.21177914	     15.19913084	    -12.37582519	     -5.54540963	     51.09100335	    -23.12527291	    -10.22942669	     70.67460896	    118.76827580	    -29.97954025	    -13.38657771	    -10.33087022
      2.18500000	      0.58773151	    -19.23513664	     90.37847720	     -0.00115610	      0.65129545	      0.37438030	     84.29891135	     -2.70561281	     -0.11282731	   -103.60551966	     22.94933822	      2.66033573	     13.12842884	     85.20496004	     -7.32668659	      4.25062028	   -102.16707997	     16.20826979	     21.37219610	     32.18602008	    -47.86240977	     -1.07118572	      0.01995533	     36.90515428	      1.64305176	     -4.13957118	     62.34611123	    -25.96768658	     -5.32689166	     72.60431433	    116.10144633	     15.19569891	    -12.18308543	     -5.59073529	     51.47752823	    -23.26676116	     -9.94303618	     70.67598705	    118.71558708	    -30.00745755	    -13.18077568	    -10.12061328
      2.18750000	      0.59109070	    -19.24826048	     90.39196825	     -0.00105018	      0.65139986	      0.37410996	     84.27052765	     -2.68302810	     -0.09620087	   -103.59192583	     22.96294612	      2.65241082	     13.14666743	     85.18764414	     -7.33080915	      4.25751017	   -102.15664713	     16.21701220	     21.37927242	     32.19344824	    -47.73417713	     -1.05715403	      0.02167640	     36.84924330	      1.66715772	     -4.13628324	     62.71325954	    -25.89299000	     -5.29579512	     72.79621346	    116.06363313	     15.17281596	    -12.21341258	     -5.60359599	     51.72620960	    -23.23588709	     -9.88162908	     70.79897926	    118.71980743	    -30.01140741	    -13.19214828	    -10.09979656
      2.19000000	      0.61260451	    -19.27676901	     90.41322176	     -0.00083212	      0.65183230	      0.37403115	     84.19108820	     -2.61264317	     -0.08012952	   -103.44424853	     23.00918544	      2.61644733	     13.21257131	     85.14526743	     -7.33584471	      4.29097949	   -102.03431656	     16.21228832	     21.40657757	     32.21610952	    -47.60839916	     -1.04814434	      0.01572917	     36.86446848	      1.72311664	     -4.11710336	     63.24200702	    -25.89074335	     -5.00119627	     72.79392068	    116.03865769	     15.18145454	    -12.12166129	     -5.61869781	     52.10555075	    -23.28651265	     -9.66582594	     70.79659207	    118.71721807	    -29.98560845	    -13.11364766	     -9.99680297
      2.19250000	      0.63816070	    -19.20456605	     90.41675082	     -0.00071637	      0.65209194	      0.37382827	     84.05890239	     -2.56976896	     -0.09667026	   -103.41338175	     23.06138638	      2.55649716	     13.31620764	     85.06092833	     -7.37366907	      4.31123672	   -102.03604335	     16.17894435	     21.44577906	     32.25386082	    -47.55401775	     -1.02255634	      0.02247995	     36.79068904	      1.75072886	     -4.08306957	     63.81367803	    -25.95149949	     -4.59435182	     72.78642285	    115.96793299	     15.18319234	    -11.98836340	     -5.64782372	     52.43033012	    -23.39309413	     -9.40186758	     70.81371810	    118.70666647	    -30.01465077	    -12.98255663	     -9.83205163
      2.19500000	      0.63913669	    -19.19728796	     90.43457727	     -0.00058339	      0.65213811	      0.37350316	     84.01908214	     -2.56243612	     -0.09448752	   -103.43738990	     23.07451294	      2.54881378	     13.33274940	     85.04489889	     -7.38944606	      4.30361532	   -102.07265210	     16.18429140	     21.45143631	     32.26168104	    -47.43259404	     -1.01557680	      0.02082622	     36.73098307	      1.76323426	     -4.08055800	     64.15601685	    -25.87902698	     -4.55656689	     72.96193868	    115.93045193	     15.16076288	    -12.01341198	     -5.66065533	     52.65821535	    -23.35656278	     -9.33758983	     70.93949406	    118.71368188	    -30.02451828	    -12.99005062	     -9.80686915
      2.19750000	      0.64857406	    -19.19387582	     90.44452168	     -0.00048661	      0.65255455	      0.37340473	     83.91754035	     -2.52545436	     -0.09030344	   -103.30983975	     23.13106740	      2.51997471	     13.39908990	     84.97626650	     -7.40059255	      4.30780888	   -101.96757530	     16.17209138	     21.46592683	     32.28780703	    -47.32452034	     -1.00213709	      0.00739847	     36.68292451	      1.78473234	     -4.07489956	     64.69310037	    -25.88515376	     -4.22035664	     72.92711489	    115.89627525	     15.16363070	    -11.90258968	     -5.67927639	     53.00196190	    -23.40455438	     -9.11269586	     70.94506843	    118.72595703	    -30.01550594	    -12.87585045	     -9.66881406
